<?xml version="1.0" encoding="UTF-8" ?>
<svg xmlns="http://www.w3.org/2000/svg" version="1.1" lang="en" width="210" height="305">
  <rect x="0" y="0" width="210" height="305" fill="white"></rect>
  <text x="15" y="235" style="font-family: 'Courier'; font-style: normal">x</text>
  <line x1="30" y1="210" x2="20" y2="225" stroke="black"></line>
  <text x="35" y="235" style="font-family: 'Courier'; font-style: normal">y</text>
  <line x1="30" y1="210" x2="40" y2="225" stroke="black"></line>
  <text x="25" y="200" style="font-family: 'Courier'; font-style: normal">P</text>
  <line x1="30" y1="175" x2="30" y2="190" stroke="black"></line>
  <text x="10" y="165" style="font-family: 'Courier'; font-style: normal">∃x</text>
  <line x1="60" y1="140" x2="30" y2="155" stroke="black"></line>
  <text x="65" y="235" style="font-family: 'Courier'; font-style: normal">z</text>
  <line x1="80" y1="210" x2="70" y2="225" stroke="black"></line>
  <text x="85" y="235" style="font-family: 'Courier'; font-style: normal">y</text>
  <line x1="80" y1="210" x2="90" y2="225" stroke="black"></line>
  <text x="75" y="200" style="font-family: 'Courier'; font-style: normal">K</text>
  <line x1="80" y1="175" x2="80" y2="190" stroke="black"></line>
  <text x="60" y="165" style="font-family: 'Courier'; font-style: normal">∀z</text>
  <line x1="60" y1="140" x2="80" y2="155" stroke="black"></line>
  <text x="45" y="130" style="font-family: 'Courier'; font-style: normal">⇒</text>
  <line x1="60" y1="105" x2="60" y2="120" stroke="black"></line>
  <text x="40" y="95" style="font-family: 'Courier'; font-style: normal">∃y</text>
  <line x1="110" y1="70" x2="60" y2="85" stroke="black"></line>
  <text x="115" y="270" style="font-family: 'Courier'; font-style: normal">b</text>
  <line x1="130" y1="245" x2="120" y2="260" stroke="black"></line>
  <text x="135" y="270" style="font-family: 'Courier'; font-style: normal">a</text>
  <line x1="130" y1="245" x2="140" y2="260" stroke="black"></line>
  <text x="125" y="235" style="font-family: 'Courier'; font-style: normal">P</text>
  <line x1="130" y1="210" x2="130" y2="225" stroke="black"></line>
  <text x="110" y="200" style="font-family: 'Courier'; font-style: normal">∃b</text>
  <line x1="130" y1="175" x2="130" y2="190" stroke="black"></line>
  <text x="110" y="165" style="font-family: 'Courier'; font-style: normal">∀a</text>
  <line x1="160" y1="140" x2="130" y2="155" stroke="black"></line>
  <text x="165" y="235" style="font-family: 'Courier'; font-style: normal">c</text>
  <line x1="180" y1="210" x2="170" y2="225" stroke="black"></line>
  <text x="185" y="235" style="font-family: 'Courier'; font-style: normal">y</text>
  <line x1="180" y1="210" x2="190" y2="225" stroke="black"></line>
  <text x="175" y="200" style="font-family: 'Courier'; font-style: normal">K</text>
  <line x1="180" y1="175" x2="180" y2="190" stroke="black"></line>
  <text x="160" y="165" style="font-family: 'Courier'; font-style: normal">∀c</text>
  <line x1="160" y1="140" x2="180" y2="155" stroke="black"></line>
  <text x="145" y="130" style="font-family: 'Courier'; font-style: normal">⇒</text>
  <line x1="160" y1="105" x2="160" y2="120" stroke="black"></line>
  <text x="140" y="95" style="font-family: 'Courier'; font-style: normal">∃y</text>
  <line x1="110" y1="70" x2="160" y2="85" stroke="black"></line>
  <text x="95" y="60" style="font-family: 'Courier'; font-style: normal">⇒</text>
  <line x1="110" y1="35" x2="110" y2="50" stroke="black"></line>
  <text x="75" y="25" style="font-family: 'Courier'; font-style: normal">Formula</text></svg>